# xmcd
#
# Track frame offsets: 
#        150
#        15128
#        33394
#        51818
#        63119
#        82553
#        103033
#        117819
#        134160
#        154003
#        175355
#        189222
#
# Disc length: 2931 seconds
#
# Revision: 0
# Processed by: cddbd v1.5.1PL0 Copyright (c) Steve Scherf et al.
# Submitted via: ExactAudioCopy v0.95a5
#
DISCID=880b710c
DTITLE=Static Sessions - Niel Brooks
DYEAR=2002
DGENRE=Blues
TTITLE0=Night
TTITLE1=Satellite Road
TTITLE2=Southern Town
TTITLE3=JACOB HALSEY'S 94TH DREAM
TTITLE4=Anabel
TTITLE5=Follow You Down
TTITLE6=Rail-Road Blues
TTITLE7=Barn Burning
TTITLE8=Phoenix
TTITLE9=Hang Your Head (September 1963)
TTITLE10=Philadelphia Around Midnight
TTITLE11=One Story Town
EXTD=
EXTT0=
EXTT1=
EXTT2=
EXTT3=
EXTT4=
EXTT5=
EXTT6=
EXTT7=
EXTT8=
EXTT9=
EXTT10=
EXTT11=
PLAYORDER=
